<?xml version="1.0" encoding="UTF-8" standalone="no"?>
<!-- Generator: Adobe Illustrator 18.0.0, SVG Export Plug-In . SVG Version: 6.00 Build 0)  -->

<svg
   xmlns:dc="http://purl.org/dc/elements/1.1/"
   xmlns:cc="http://creativecommons.org/ns#"
   xmlns:rdf="http://www.w3.org/1999/02/22-rdf-syntax-ns#"
   xmlns:svg="http://www.w3.org/2000/svg"
   xmlns="http://www.w3.org/2000/svg"
   xmlns:sodipodi="http://sodipodi.sourceforge.net/DTD/sodipodi-0.dtd"
   xmlns:inkscape="http://www.inkscape.org/namespaces/inkscape"
   version="1.1"
   id="svg2"
   inkscape:version="0.48.5 r10040"
   sodipodi:docname="plane_base.svg"
   x="0px"
   y="0px"
   viewBox="357.3 241.4 56 56"
   enable-background="new 357.3 241.4 56 56"
   xml:space="preserve"
   width="100%"
   height="100%"><metadata
     id="metadata3034"><rdf:RDF><cc:Work
         rdf:about=""><dc:format>image/svg+xml</dc:format><dc:type
           rdf:resource="http://purl.org/dc/dcmitype/StillImage" /></cc:Work></rdf:RDF></metadata><defs
     id="defs3032" /><sodipodi:namedview
     inkscape:document-units="px"
     inkscape:pageopacity="0.0"
     inkscape:window-width="1622"
     inkscape:window-y="0"
     inkscape:pageshadow="2"
     inkscape:window-x="58"
     inkscape:window-maximized="1"
     inkscape:current-layer="layer1"
     inkscape:guide-bbox="true"
     inkscape:window-height="1006"
     bordercolor="#666666"
     showgrid="false"
     inkscape:zoom="9.0239696"
     inkscape:cx="32.753265"
     showguides="true"
     inkscape:cy="28.879963"
     pagecolor="#ffffff"
     id="base"
     borderopacity="1.0" /><g
     id="layer1"
     inkscape:groupmode="layer"
     inkscape:label="Camada 1"><path
       id="rect3052"
       inkscape:connector-curvature="0"
       sodipodi:nodetypes="ccccccccssssccccsssscccccczccccccccccccccccccccccccccccccccsccccccccsscsczccccccssssccccssssccccccsc"
       d="m 385.20171,241.92525 c -1.3764,0 -2.0646,4.71907 -2.35954,6.88198 -0.0983,0.6882 -0.0983,1.27809 -0.0983,1.86797 l 0,6.68536 c 0,0.39326 -0.0983,0.49157 -0.29494,0.6882 l -3.22177,2.85003 -1.89056,1.67242 c -0.39326,0.19663 -0.78652,0.19663 -0.78652,-0.58988 l 0,-0.58989 c 0,-0.29494 -0.29494,-0.58988 -0.58988,-0.58988 l -0.78651,0 c -0.29495,0 -0.58989,0.29494 -0.58989,0.58988 l 0,3.441 c 0,0.0983 0,0.0983 -0.0983,0.19662 l -4.91571,4.32582 c -0.49157,0.39326 -0.6882,0 -0.6882,-0.58988 l 0,-1.08146 c 0,-0.29494 -0.29494,-0.58988 -0.58988,-0.58988 l -0.78652,0 c -0.29494,0 -0.58988,0.29494 -0.58988,0.58988 l 0,3.63763 0,0.0983 -5.21065,4.52245 c -0.29494,0.39326 -0.49157,0.58989 -0.49157,1.3764 l 0,2.06459 c 0,0.29495 0.19663,0.39326 0.39326,0.29495 0,0 8.94658,-5.50559 12.38758,-6.98031 3.44099,-1.47471 7.96344,-2.55616 7.96344,-2.55616 0.39326,-0.0983 0.6882,-0.0983 0.78651,0.29494 l 0,14.6488 0,0.58989 c 0,1.86797 0.6882,2.94942 0,3.53931 l -5.70222,5.40727 c -0.39325,0.39326 -0.58988,0.6882 -0.58988,1.27809 l 0,0.58988 c 0,0.29494 0.0983,0.49157 0.39326,0.39326 l 7.27524,-1.76966 c 0.19663,-0.0983 0.29494,0 0.49157,0.0983 l 0.78651,1.67134 0.88483,-1.67134 c 0.0983,-0.19663 0.39326,-0.29494 0.58989,-0.19663 2.26122,0.49157 4.52245,1.08146 6.78367,1.57303 0.29494,0 0.49157,0 0.58988,-0.39326 l 0,-0.98314 c -0.19662,-0.6882 -0.49157,-0.98314 -0.88482,-1.3764 l -5.70222,-4.81739 c -0.49157,-0.58989 0,-1.67134 0.19663,-3.53931 l 0,-0.58988 0,-14.45218 0,0 0,0 0,0 0,0 0,0 0,0 0,0 0,0 c 0,0 0,0 0,-0.0983 0,0 0,0 0,-0.0983 0,0 0,0 0,-0.0983 0,0 0,0 0,-0.0983 0,0 0,0 0,-0.0983 0,-0.0983 0,0 0,0 l 0,0 0,0 0,0 c 0,0 0,0 0.0983,0 0.0983,0 0,0 0.0983,0 0.0983,0 0,0 0.0983,0 0,0 0,0 0.0983,0 0,0 0,0 0.0983,0 0,0 0,0 0.0983,0 0.0983,0 0.0983,0 0.0983,0 0,0 4.12919,0.88483 7.6685,2.35954 3.53931,1.47471 12.78083,7.07861 12.78083,7.07861 0.19663,0 0.39326,0 0.39326,-0.19662 l 0,-1.86797 c 0,-0.49157 -0.29494,-0.98314 -0.49157,-1.17977 l -5.11234,-4.52245 c -0.19662,-0.19663 -0.19662,-0.29494 -0.19662,-0.39326 l 0,-3.53931 c 0,-0.29494 -0.29495,-0.58988 -0.58989,-0.58988 l -0.78651,0 c -0.29494,0 -0.58989,0.29494 -0.58989,0.58988 l 0,1.08146 c 0.0983,0.6882 -0.0983,0.88483 -0.49157,0.58988 l -5.01402,-4.32582 c -0.0983,-0.0983 -0.0983,-0.0983 -0.0983,-0.19662 l 0,-3.441 c 0,-0.29494 -0.29494,-0.58988 -0.58989,-0.58988 l -0.78651,0 c -0.29494,0 -0.58988,0.29494 -0.58988,0.58988 l 0,0.58989 c 0.0983,0.78651 -0.49157,0.98314 -0.78652,0.58988 l -5.11233,-4.52245 c -0.19663,-0.19663 -0.29494,-0.39326 -0.29494,-0.6882 l 0,-6.68536 c 0,-0.6882 -0.0983,-1.3764 -0.0983,-1.96628 -0.49157,-2.26122 -1.3764,-7.27525 -2.55616,-6.78367 z"
       style="fill:#ff0000;fill-opacity:1;stroke:#000000;stroke-width:0.98299999999999998;stroke-linejoin:round;stroke-opacity:1;stroke-miterlimit:4;stroke-dasharray:none" /></g></svg>